Coordinates
version=1
nRows=24
nColumns=38
inDegrees=no

Units are S.I. units (second, meters, Newtons, ...)
If the header above contains a line with 'inDegrees', this indicates whether rotational values are in degrees (yes) or radians (no).

endheader
time	pelvis_tilt	pelvis_list	pelvis_rotation	pelvis_tx	pelvis_ty	pelvis_tz	hip_flexion_r	hip_adduction_r	hip_rotation_r	knee_angle_r	ankle_angle_r	subtalar_angle_r	mtp_angle_r	hip_flexion_l	hip_adduction_l	hip_rotation_l	knee_angle_l	ankle_angle_l	subtalar_angle_l	mtp_angle_l	lumbar_extension	lumbar_bending	lumbar_rotation	arm_flex_r	arm_add_r	arm_rot_r	elbow_flex_r	pro_sup_r	wrist_flex_r	wrist_dev_r	arm_flex_l	arm_add_l	arm_rot_l	elbow_flex_l	pro_sup_l	wrist_flex_l	wrist_dev_l
1.175	0.13571	-0.0212595	-0.0136719	0.767216	1.01335	-0.369448	-0.396384	-0.0559667	-0.136992	-0.905951	-0.300375	-0.0249142	-0.00296313	0.341183	0.0327114	-0.0100984	-0.47086	0.192338	-0.012644	-0.0101544	-0.371552	0.00548182	0.205199	-0.189729	-0.516614	0.334431	2.23202	1.44069	-0.0106676	0.0134764	-0.64617	-0.535829	-0.0481294	2.3166	1.74747	0.0298793	-0.0388848
1.18333	0.144962	-0.0201861	-0.00705616	0.767467	1.00954	-0.369905	-0.380154	-0.0698446	-0.160007	-1.00121	-0.29313	-0.0249142	-0.00296313	0.325011	0.0359003	-0.00189281	-0.469225	0.18084	-0.012644	-0.0101544	-0.382589	0.00210087	0.1888	-0.195892	-0.514145	0.345137	2.22609	1.44193	-0.0106676	0.0134764	-0.636976	-0.543868	-0.0672304	2.32427	1.73706	0.0298793	-0.0388848
1.19167	0.155322	-0.0171435	0.000854706	0.767514	1.00511	-0.370572	-0.364229	-0.0868967	-0.183591	-1.09621	-0.286038	-0.0249142	-0.00296313	0.311905	0.0420949	0.00753099	-0.484961	0.170998	-0.012644	-0.0101544	-0.395097	-0.00256674	0.169226	-0.20276	-0.511227	0.353601	2.21804	1.44407	-0.0106676	0.0134764	-0.625982	-0.552919	-0.0861534	2.33071	1.72399	0.0298793	-0.0388848
1.2	0.166081	-0.0122807	0.0098219	0.767292	1.00013	-0.371414	-0.34765	-0.106383	-0.206312	-1.19015	-0.279383	-0.0249142	-0.00296313	0.302276	0.0512172	0.0180622	-0.516903	0.16575	-0.012644	-0.0101544	-0.408504	-0.00833939	0.146925	-0.210434	-0.507856	0.359655	2.20752	1.44719	-0.0106676	0.0134764	-0.612643	-0.562901	-0.104293	2.33536	1.70894	0.0298793	-0.0388848
1.20833	0.176503	-0.00581404	0.0194411	0.766738	0.994739	-0.372361	-0.329172	-0.127385	-0.22663	-1.28242	-0.27307	-0.0249142	-0.00296313	0.296066	0.0629549	0.0293858	-0.562514	0.167766	-0.012644	-0.0101544	-0.422233	-0.0150815	0.122514	-0.218913	-0.503921	0.363155	2.19403	1.45122	-0.0106676	0.0134764	-0.596278	-0.573649	-0.120966	2.33759	1.69307	0.0298793	-0.0388848
1.21667	0.185924	0.00199752	0.0291701	0.765812	0.989141	-0.373316	-0.307453	-0.148896	-0.243068	-1.37244	-0.266765	-0.0249142	-0.00296313	0.292655	0.0767815	0.0409549	-0.617964	0.178699	-0.012644	-0.0101544	-0.435758	-0.0227404	0.0967312	-0.228092	-0.499201	0.364021	2.177	1.45588	-0.0106676	0.0134764	-0.576136	-0.584917	-0.135457	2.33669	1.67785	0.0298793	-0.0388848
1.225	0.193866	0.0108654	0.0383737	0.764518	0.983573	-0.374172	-0.281263	-0.169863	-0.254328	-1.45958	-0.260044	-0.0249142	-0.00296313	0.290879	0.0919846	0.0520417	-0.678489	0.198734	-0.012644	-0.0101544	-0.448635	-0.0313198	0.0703859	-0.237781	-0.493409	0.362264	2.15584	1.46059	-0.0106676	0.0134764	-0.551515	-0.596369	-0.147089	2.33197	1.66503	0.0298793	-0.0388848
1.23333	0.200062	0.0204662	0.0463943	0.762885	0.978227	-0.374836	-0.249694	-0.189211	-0.259424	-1.54307	-0.25251	-0.0249142	-0.00296313	0.289151	0.107716	0.0618897	-0.738998	0.226627	-0.012644	-0.0101544	-0.46055	-0.0407987	0.0442989	-0.247745	-0.486271	0.358001	2.13009	1.46459	-0.0106676	0.0134764	-0.521903	-0.607566	-0.155328	2.32289	1.65625	0.0298793	-0.0388848
1.24167	0.204496	0.0303938	0.0526538	0.760962	0.973267	-0.375252	-0.21233	-0.205871	-0.257792	-1.62191	-0.243871	-0.0249142	-0.00296313	0.285677	0.123076	0.0699036	-0.794733	0.260144	-0.012644	-0.0101544	-0.471339	-0.0510436	0.0192228	-0.257765	-0.477628	0.351451	2.09964	1.46695	-0.0106676	0.0134764	-0.487126	-0.617965	-0.15989	2.30915	1.65287	0.0298793	-0.0388848
1.25	0.207387	0.0401583	0.0567612	0.758803	0.968855	-0.37539	-0.169338	-0.21885	-0.249402	-1.69498	-0.233979	-0.0249142	-0.00296313	0.278693	0.137213	0.0758127	-0.841836	0.296678	-0.012644	-0.0101544	-0.480989	-0.0617261	-0.00425076	-0.267692	-0.467523	0.342903	2.0649	1.46672	-0.0106676	0.0134764	-0.447461	-0.626926	-0.160825	2.29082	1.65575	0.0298793	-0.0388848
1.25833	0.209122	0.0492222	0.0586053	0.756477	0.965159	-0.375258	-0.121445	-0.227343	-0.23484	-1.76104	-0.222839	-0.0249142	-0.00296313	0.266715	0.149411	0.0797479	-0.877677	0.333758	-0.012644	-0.0101544	-0.4896	-0.0722832	-0.0257829	-0.277491	-0.456254	0.332671	2.0269	1.46304	-0.0106676	0.0134764	-0.403696	-0.633755	-0.158559	2.26847	1.66506	0.0298793	-0.0388848
1.26667	0.210152	0.0570468	0.0584103	0.754077	0.962322	-0.374909	-0.0698277	-0.230856	-0.215312	-1.81889	-0.210596	-0.0249142	-0.00296313	0.248731	0.159142	0.0822197	-0.900932	0.369337	-0.012644	-0.0101544	-0.497318	-0.0819425	-0.045351	-0.287264	-0.444361	0.321052	1.9873	1.45522	-0.0106676	0.0134764	-0.35712	-0.637774	-0.15385	2.24313	1.68026	0.0298793	-0.0388848
1.275	0.210861	0.0631422	0.0567261	0.751707	0.960434	-0.374439	-0.0159143	-0.229293	-0.192552	-1.86743	-0.197502	-0.0249142	-0.00296313	0.224312	0.166069	0.0840148	-0.911439	0.40185	-0.012644	-0.0101544	-0.504255	-0.0897994	-0.0632508	-0.297236	-0.432552	0.308287	1.94819	1.44279	-0.0106676	0.0134764	-0.309422	-0.638417	-0.14769	2.21627	1.70012	0.0298793	-0.0388848
1.28333	0.211448	0.0671101	0.0543333	0.749468	0.959529	-0.373964	0.0388426	-0.22296	-0.168607	-1.9058	-0.183865	-0.0249142	-0.00296313	0.193637	0.170009	0.0860225	-0.909911	0.430165	-0.012644	-0.0101544	-0.5104	-0.0949454	-0.0800168	-0.307719	-0.421586	0.294551	1.91186	1.4256	-0.0106676	0.0134764	-0.262533	-0.635342	-0.14114	2.18963	1.723	0.0298793	-0.0388848
1.29167	0.2119	0.0686619	0.0521004	0.747449	0.959591	-0.373593	0.0931384	-0.212494	-0.14558	-1.93341	-0.169989	-0.0249142	-0.00296313	0.157391	0.170863	0.0890591	-0.897611	0.453471	-0.012644	-0.0101544	-0.515581	-0.0965994	-0.0962866	-0.319051	-0.412145	0.279959	1.88048	1.40385	-0.0106676	0.0134764	-0.21841	-0.628522	-0.135126	2.16499	1.74706	0.0298793	-0.0388848
1.3	0.212032	0.0676194	0.0508291	0.74573	0.960565	-0.37341	0.145898	-0.198724	-0.125377	-1.94996	-0.156135	-0.0249142	-0.00296313	0.116588	0.168563	0.0937184	-0.876055	0.47117	-0.012644	-0.0101544	-0.519497	-0.0942135	-0.112649	-0.331535	-0.404742	0.264582	1.85575	1.37815	-0.0106676	0.0134764	-0.178818	-0.618304	-0.130256	2.14399	1.77047	0.0298793	-0.0388848
1.30833	0.211587	0.063912	0.0511269	0.74438	0.962371	-0.373461	0.196282	-0.182547	-0.109517	-1.95543	-0.142503	-0.0249142	-0.00296313	0.0723796	0.16304	0.100266	-0.846805	0.482751	-0.012644	-0.0101544	-0.52179	-0.087534	-0.12952	-0.345389	-0.399671	0.248464	1.83872	1.34962	-0.0106676	0.0134764	-0.145144	-0.605386	-0.126683	2.12788	1.7915	0.0298793	-0.0388848
1.31667	0.210326	0.0575756	0.0533256	0.743451	0.964907	-0.373751	0.243662	-0.164811	-0.0990111	-1.95006	-0.129228	-0.0249142	-0.00296313	0.025917	0.154238	0.108587	-0.811368	0.487707	-0.012644	-0.0101544	-0.522129	-0.0766154	-0.147074	-0.360706	-0.39702	0.231639	1.82969	1.31984	-0.0106676	0.0134764	-0.118276	-0.59073	-0.124087	2.11746	1.80856	0.0298793	-0.0388848
1.325	0.208088	0.0487546	0.0574537	0.742975	0.968067	-0.374258	0.287589	-0.146261	-0.0943212	-1.93428	-0.116408	-0.0249142	-0.00296313	-0.0217261	0.142157	0.118185	-0.771167	0.485476	-0.012644	-0.0101544	-0.520282	-0.0617914	-0.165233	-0.377434	-0.396709	0.214142	1.82824	1.29077	-0.0106676	0.0134764	-0.0985717	-0.575421	-0.121769	2.11296	1.82035	0.0298793	-0.0388848
1.33333	0.204842	0.0377015	0.0632547	0.742967	0.971747	-0.374932	0.327762	-0.127505	-0.0954048	-1.90864	-0.10412	-0.0249142	-0.00296313	-0.0695728	0.126896	0.128256	-0.727564	0.475463	-0.012644	-0.0101544	-0.516157	-0.04361	-0.183711	-0.395373	-0.39855	0.196035	1.83334	1.26434	-0.0106676	0.0134764	-0.0859076	-0.560508	-0.118838	2.11414	1.82602	0.0298793	-0.0388848
1.34167	0.200648	0.0247283	0.0702491	0.743418	0.975851	-0.375708	0.36399	-0.109019	-0.101817	-1.87377	-0.0924223	-0.0249142	-0.00296313	-0.11675	0.108697	0.137803	-0.681891	0.457107	-0.012644	-0.0101544	-0.509839	-0.0227695	-0.202082	-0.414181	-0.402291	0.17742	1.84357	1.24216	-0.0106676	0.0134764	-0.0797832	-0.546876	-0.114434	2.12034	1.82532	0.0298793	-0.0388848
1.35	0.195638	0.0101866	0.0778246	0.744296	0.980284	-0.376517	0.396149	-0.0911432	-0.112849	-1.83026	-0.0813496	-0.0249142	-0.00296313	-0.16248	0.0879494	0.145799	-0.635474	0.430011	-0.012644	-0.0101544	-0.501576	-4.21363e-05	-0.219864	-0.433399	-0.407649	0.158453	1.85733	1.22534	-0.0106676	0.0134764	-0.0794591	-0.535167	-0.107918	2.13069	1.8187	0.0298793	-0.0388848
1.35833	0.18999	-0.00554303	0.0853276	0.745542	0.984957	-0.377292	0.424149	-0.0740919	-0.127662	-1.77864	-0.0708819	-0.0249142	-0.00296313	-0.206064	0.0651829	0.151352	-0.589647	0.394077	-0.012644	-0.0101544	-0.491743	0.0237889	-0.236592	-0.452497	-0.414316	0.139332	1.87303	1.21446	-0.0106676	0.0134764	-0.0840951	-0.52575	-0.0989969	2.14418	1.80718	0.0298793	-0.0388848
1.36667	0.183891	-0.0220541	0.0921468	0.747084	0.989778	-0.377968	0.447898	-0.0579512	-0.145362	-1.7193	-0.0609185	-0.0249142	-0.00296313	-0.246881	0.0410464	0.153839	-0.545746	0.349633	-0.012644	-0.0101544	-0.480784	0.0479618	-0.251889	-0.470923	-0.421969	0.120297	1.88922	1.20959	-0.0106676	0.0134764	-0.0928685	-0.518744	-0.0877625	2.15987	1.7923	0.0298793	-0.0388848
